<svg xmlns="http://www.w3.org/2000/svg" width="156.689" height="50" viewBox="0 0 156.689 50">
  <g id="ITAIMS_-_Professional_Software_Web_and_Mobile_App_Solutions" data-name="ITAIMS - Professional Software,Web and Mobile App Solutions" transform="translate(-10.07 -14.672)">
    <path id="Path_1" data-name="Path 1" d="M227,52.078h3.495a.34.34,0,0,1,.226.24c.107,1.757,2.057,2.177,3.329,1.777a1.811,1.811,0,0,0,1.431-2.057,1.385,1.385,0,0,0-.985-1.105c-.786-.233-1.6-.379-2.4-.566a19.578,19.578,0,0,1-2.357-.553,4.023,4.023,0,0,1-1.385-6.471,5.492,5.492,0,0,1,3.728-1.764,7.9,7.9,0,0,1,4.227.559,4.267,4.267,0,0,1,2.437,4.354h-3.588a1.56,1.56,0,0,1-.053-.233,1.724,1.724,0,0,0-1.152-1.644,2.283,2.283,0,0,0-2.337.353,1.391,1.391,0,0,0,.3,2.423,16.6,16.6,0,0,0,2.383.619c.752.18,1.531.293,2.257.546a3.761,3.761,0,0,1,2.663,4.247,4.114,4.114,0,0,1-2.536,3.621,8.428,8.428,0,0,1-7.363-.087A4.379,4.379,0,0,1,227,52.078" transform="translate(-72.518 -8.968)" fill="#fff"/>
    <path id="Path_2" data-name="Path 2" d="M156.514,54.691h-4.3V45.9a5.459,5.459,0,1,0-5.925,5.326,5.679,5.679,0,0,0,4.121-1.331q.043.251.06.506a14.244,14.244,0,0,0,0,1.944c.16,1.058-.34,1.564-1.232,2a8.654,8.654,0,0,1-12.229-5.991c-1.751-7.456,4.427-12.455,10.452-11.983a9.54,9.54,0,0,1,8.827,7.19,7.991,7.991,0,0,1,.253,1.864v9.207" transform="translate(-42.333 -7.241)" fill="#fff"/>
    <path id="Path_3" data-name="Path 3" d="M189.674,55.539h-4.34c0-.213-.033-.406-.033-.6V44.5c0-3.941,2.783-6.83,6.87-7.243a7.376,7.376,0,0,1,7.989,5.772,7.055,7.055,0,0,1,.126,1.4q0,5.246,0,10.5a3.776,3.776,0,0,1-.033.6h-4.3c0-.22-.04-.446-.04-.666V44.549a3.116,3.116,0,1,0-6.224-.226c-.04,1.238,0,2.476,0,3.715V54.82Z" transform="translate(-58.578 -7.537)" fill="#fff"/>
    <path id="Path_4" data-name="Path 4" d="M208.034,41.655a18.491,18.491,0,0,0-.912-1.817c-.346-.566-.779-1.072-1.192-1.638a7.7,7.7,0,0,1,3.588-1.025,7.376,7.376,0,0,1,7.549,5.525,7.163,7.163,0,0,1,.193,1.691v10.5c0,.486-.133.666-.626.626-1.232-.033-2.463,0-3.775,0v-.666c0-3.329-.12-6.657.04-10.026a3.223,3.223,0,0,0-4.88-3.135" transform="translate(-65.474 -7.518)" fill="#fff"/>
    <path id="Path_5" data-name="Path 5" d="M173.239,45.89h4.28V58.439h-3.994c-.1,0-.213-.16-.293-.266s0-.153,0-.233V46.309a1.622,1.622,0,0,1,.04-.406" transform="translate(-54.532 -10.436)" fill="#fff"/>
    <path id="Path_6" data-name="Path 6" d="M175.39,40.4a2.124,2.124,0,0,1-2.17-2.11,2.167,2.167,0,1,1,4.334,0,2.124,2.124,0,0,1-2.164,2.117" transform="translate(-54.54 -7.171)" fill="#fff"/>
    <path id="Path_7" data-name="Path 7" d="M115.46,53.752h-4.094V35.711H105.88V31.95h9.58Z" transform="translate(-32.028 -5.776)" fill="#fff"/>
    <rect id="Rectangle_1" data-name="Rectangle 1" width="4.054" height="21.795" transform="translate(67.534 26.168)" fill="#fff"/>
    <rect id="Rectangle_2" data-name="Rectangle 2" width="3.808" height="3.721" transform="translate(85.149 26.174)" fill="#fff"/>
    <path id="Path_8" data-name="Path 8" d="M101.08,81.472H98.357l-.566,1.638H96.52l2.663-7.03h1.1l2.663,7.03h-1.272ZM98.7,80.487h2.037l-1.019-2.916Z" transform="translate(-28.899 -20.528)" fill="#fff"/>
    <path id="Path_9" data-name="Path 9" d="M110.388,83.1H109.17V76.08h1.218Z" transform="translate(-33.128 -20.528)" fill="#fff"/>
    <path id="Path_10" data-name="Path 10" d="M116.614,76.08l2,5.386,2-5.386h1.578V83.1h-1.218V80.787l.12-3.1-2.077,5.419h-.872l-2.07-5.412.12,3.1V83.11H114.97V76.08Z" transform="translate(-35.067 -20.528)" fill="#fff"/>
    <path id="Path_11" data-name="Path 11" d="M135.349,82.84V78.487h-.8v-.865h.8V77.1a2.157,2.157,0,0,1,.126-.772,1.511,1.511,0,0,1,.366-.566,1.558,1.558,0,0,1,.579-.346,2.469,2.469,0,0,1,1.1-.093l.32.06V76.3h-.453a.852.852,0,0,0-.626.213.832.832,0,0,0-.22.626v.493H137.6v.865H136.54v4.354Z" transform="translate(-41.613 -20.265)" fill="#fff"/>
    <path id="Path_12" data-name="Path 12" d="M141.827,81.306a3.228,3.228,0,0,1,.166-1.052,2.509,2.509,0,0,1,.479-.845,2.191,2.191,0,0,1,.759-.559,2.45,2.45,0,0,1,1.019-.2,2.5,2.5,0,0,1,1.025.2,2.177,2.177,0,0,1,.766.559,2.47,2.47,0,0,1,.473.845,3.274,3.274,0,0,1,.166,1.052v.1a3.328,3.328,0,0,1-.166,1.058,2.437,2.437,0,0,1-.473.845,2.171,2.171,0,0,1-.766.553,2.716,2.716,0,0,1-2.044,0,2.177,2.177,0,0,1-.766-.553,2.476,2.476,0,0,1-.479-.845,3.249,3.249,0,0,1-.166-1.058Zm1.172.1a2.949,2.949,0,0,0,.073.666,1.664,1.664,0,0,0,.226.546,1.155,1.155,0,0,0,1.911,0,1.738,1.738,0,0,0,.226-.546,2.882,2.882,0,0,0,.073-.666v-.1a2.833,2.833,0,0,0-.073-.666,1.71,1.71,0,0,0-.226-.546,1.178,1.178,0,0,0-.393-.373,1.1,1.1,0,0,0-.566-.14,1.078,1.078,0,0,0-.559.14,1.2,1.2,0,0,0-.386.373,1.665,1.665,0,0,0-.226.546,2.9,2.9,0,0,0-.073.666Z" transform="translate(-44.043 -21.387)" fill="#fff"/>
    <path id="Path_13" data-name="Path 13" d="M155.129,79.813h-.479a1.331,1.331,0,0,0-.666.166,1,1,0,0,0-.393.453v3.575H152.42V78.741h1.118v.586a1.518,1.518,0,0,1,.493-.5,1.278,1.278,0,0,1,.666-.18,1.333,1.333,0,0,1,.226,0,.931.931,0,0,1,.186.047Z" transform="translate(-47.586 -21.385)" fill="#fff"/>
    <path id="Path_14" data-name="Path 14" d="M166.867,83.137a1.191,1.191,0,0,0,.4-.067.992.992,0,0,0,.326-.18.932.932,0,0,0,.22-.28.865.865,0,0,0,.093-.359h1.105a1.677,1.677,0,0,1-.18.706,1.938,1.938,0,0,1-.459.579,2.171,2.171,0,0,1-.666.393,2.31,2.31,0,0,1-.812.14,2.476,2.476,0,0,1-1.052-.206,2.1,2.1,0,0,1-.746-.566,2.37,2.37,0,0,1-.439-.832,3.5,3.5,0,0,1-.146-1.012v-.166a3.5,3.5,0,0,1,.146-1.012,2.39,2.39,0,0,1,.439-.839,2.1,2.1,0,0,1,.739-.539,2.7,2.7,0,0,1,1.911-.06,2,2,0,0,1,.666.406,1.858,1.858,0,0,1,.433.626,2.164,2.164,0,0,1,.173.8h-1.105a1.212,1.212,0,0,0-.087-.393,1.018,1.018,0,0,0-.206-.326.965.965,0,0,0-.32-.22,1.052,1.052,0,0,0-.426-.08,1.025,1.025,0,0,0-.959.533,1.611,1.611,0,0,0-.186.539,3.715,3.715,0,0,0-.053.612V81.5a3.72,3.72,0,0,0,.053.619,1.611,1.611,0,0,0,.186.539,1.072,1.072,0,0,0,.366.379A1.092,1.092,0,0,0,166.867,83.137Z" transform="translate(-51.628 -21.401)" fill="#fff"/>
    <path id="Path_15" data-name="Path 15" d="M177.119,79.813h-.479a1.332,1.332,0,0,0-.666.166,1,1,0,0,0-.393.453v3.575H174.41V78.741h1.058v.586a1.518,1.518,0,0,1,.493-.5,1.278,1.278,0,0,1,.666-.18,1.331,1.331,0,0,1,.226,0,.933.933,0,0,1,.186.047Z" transform="translate(-54.937 -21.385)" fill="#fff"/>
    <path id="Path_16" data-name="Path 16" d="M183.423,84.052a2.663,2.663,0,0,1-1.045-.193,2.29,2.29,0,0,1-.786-.533,2.324,2.324,0,0,1-.5-.8,2.822,2.822,0,0,1-.173-1v-.193a3.215,3.215,0,0,1,.186-1.132,2.543,2.543,0,0,1,.5-.852,2.21,2.21,0,0,1,.752-.539,2.27,2.27,0,0,1,.932-.193,2.377,2.377,0,0,1,.992.193,1.864,1.864,0,0,1,.666.533,2.291,2.291,0,0,1,.413.812,3.768,3.768,0,0,1,.133,1.039v.5H182.1a1.879,1.879,0,0,0,.127.559,1.384,1.384,0,0,0,.28.439,1.332,1.332,0,0,0,.419.293,1.371,1.371,0,0,0,.553.107,1.564,1.564,0,0,0,.752-.173,1.777,1.777,0,0,0,.559-.479l.632.606a2.164,2.164,0,0,1-.313.366,2.124,2.124,0,0,1-.433.313,2.49,2.49,0,0,1-.559.22A2.71,2.71,0,0,1,183.423,84.052Zm-.14-4.474a.985.985,0,0,0-.779.34,1.751,1.751,0,0,0-.379.939h2.237V80.77a2.149,2.149,0,0,0-.073-.446,1.14,1.14,0,0,0-.186-.379.9.9,0,0,0-.326-.266,1.105,1.105,0,0,0-.493-.1Z" transform="translate(-57.113 -21.377)" fill="#fff"/>
    <path id="Path_17" data-name="Path 17" d="M194.012,83.947a.99.99,0,0,1-.08-.22,2.447,2.447,0,0,0-.053-.273,2.064,2.064,0,0,1-.26.226,1.752,1.752,0,0,1-.313.186,1.87,1.87,0,0,1-.373.126,1.909,1.909,0,0,1-.426.047,2.11,2.11,0,0,1-.719-.12,1.691,1.691,0,0,1-.559-.326,1.511,1.511,0,0,1-.366-.493,1.445,1.445,0,0,1-.133-.619,1.658,1.658,0,0,1,.16-.746,1.438,1.438,0,0,1,.466-.539,2.223,2.223,0,0,1,.746-.333,4.068,4.068,0,0,1,1.005-.113h.739v-.346a.919.919,0,0,0-.226-.666.9.9,0,0,0-.666-.246,1.2,1.2,0,0,0-.379.053.912.912,0,0,0-.286.146.666.666,0,0,0-.186.226.619.619,0,0,0-.067.28h-1.172a1.258,1.258,0,0,1,.153-.6,1.631,1.631,0,0,1,.433-.513,2.2,2.2,0,0,1,.666-.359,2.983,2.983,0,0,1,1.7,0,1.824,1.824,0,0,1,.666.34,1.518,1.518,0,0,1,.419.559,1.917,1.917,0,0,1,.146.786v2.317a2.663,2.663,0,0,0,.2,1.125v.08ZM192.72,83.1a1.332,1.332,0,0,0,.379-.053,1.392,1.392,0,0,0,.32-.14,1.193,1.193,0,0,0,.246-.2,1.141,1.141,0,0,0,.166-.226V81.53H193.2a1.737,1.737,0,0,0-.979.226.732.732,0,0,0-.326.666.8.8,0,0,0,.053.293.666.666,0,0,0,.16.233.758.758,0,0,0,.26.153,1.039,1.039,0,0,0,.359.007Z" transform="translate(-60.393 -21.372)" fill="#fff"/>
    <path id="Path_18" data-name="Path 18" d="M201.984,76.88v1.272h.919v.865h-.919v2.916a.918.918,0,0,0,.04.293.38.38,0,0,0,.113.173.4.4,0,0,0,.173.08,1.031,1.031,0,0,0,.22,0h.406v.905l-.326.073a2.37,2.37,0,0,1-.446.033,1.818,1.818,0,0,1-.539-.08,1.065,1.065,0,0,1-.426-.253,1.171,1.171,0,0,1-.28-.453,2,2,0,0,1-.1-.666V79.017h-.859v-.865h.859V76.88Z" transform="translate(-63.478 -20.795)" fill="#fff"/>
    <path id="Path_19" data-name="Path 19" d="M207.5,76.436a.626.626,0,0,1,.173-.446.766.766,0,0,1,.985,0,.619.619,0,0,1,.173.446.606.606,0,0,1-.173.439.772.772,0,0,1-.985,0A.606.606,0,0,1,207.5,76.436Zm1.245,6.577h-1.172V77.794h1.172Z" transform="translate(-65.999 -20.438)" fill="#fff"/>
    <path id="Path_20" data-name="Path 20" d="M214.647,82.525l1.105-3.735h1.212l-1.811,5.219h-1.019L212.31,78.79h1.218Z" transform="translate(-67.607 -21.434)" fill="#fff"/>
    <path id="Path_21" data-name="Path 21" d="M223.678,83.1H222.46V76.08h1.218Z" transform="translate(-71 -20.528)" fill="#fff"/>
    <path id="Path_22" data-name="Path 22" d="M232.932,77.065h-2.19V83.11H229.53V77.065h-2.17V76.08h5.572Z" transform="translate(-72.638 -20.528)" fill="#fff"/>
    <path id="Path_23" data-name="Path 23" d="M239.66,82.325l1.058-3.542h1.252l-2.077,5.991a3.789,3.789,0,0,1-.193.426,1.817,1.817,0,0,1-.306.426,1.617,1.617,0,0,1-.466.333,1.5,1.5,0,0,1-.666.133,1.654,1.654,0,0,1-.3,0l-.266-.06v-.912h.22a1.751,1.751,0,0,0,.379-.033.786.786,0,0,0,.28-.12.8.8,0,0,0,.206-.22,1.47,1.47,0,0,0,.153-.333l.166-.446-1.831-5.2h1.265Z" transform="translate(-75.951 -21.427)" fill="#fff"/>
    <path id="Path_24" data-name="Path 24" d="M55.315,62.036H47.433c-2.13,0-1.684.406-2.3-1.737-3.2-11.137-9.906-34.617-9.906-34.617h-.619c0,.04-.666,2.33-.812,2.949a6.91,6.91,0,0,1-6.657,5.013H23.86q2.956-9.014,5.9-18.027a1.125,1.125,0,0,1,1.272-.932c2.456.047,4.913.087,7.369,0a1.588,1.588,0,0,1,1.851,1.331Q47.286,37.585,54.4,59.134c.3.912.573,1.817.912,2.889" transform="translate(-4.61 0)" fill="#fff"/>
    <path id="Path_25" data-name="Path 25" d="M10.07,77.376c3.036,0,5.991,0,8.98-.033.28,0,.666-.466.8-.792.666-2.223,1.331-4.467,1.951-6.724a1.2,1.2,0,0,1,1.411-1.065c3.382.047,6.764,0,10.145,0h1.551c-.333-1.172-.619-2.19-.912-3.209-.393-1.331-.825-2.663-1.178-4.054-.166-.666-.426-.945-1.138-.939-5.153,0-10.305,0-15.458.047a1.331,1.331,0,0,0-1.019.712c-1.718,5.106-3.382,10.232-5.053,15.358a3.841,3.841,0,0,0-.073.666" transform="translate(0 -15.34)" fill="#fff"/>
    <path id="Path_26" data-name="Path 26" d="M29.819,48.8a3.994,3.994,0,1,1-3.994-3.994A3.994,3.994,0,0,1,29.819,48.8" transform="translate(-3.931 -10.075)" fill="#3478ff"/>
  </g>
</svg>
